<svg width="532" height="182" viewBox="0 0 532 182" fill="none" xmlns="http://www.w3.org/2000/svg">
<rect width="532" height="182" fill="white"/>
<mask id="mask0_88_1344" style="mask-type:luminance" maskUnits="userSpaceOnUse" x="93" y="61" width="27" height="5">
<path d="M93.2812 61H119.677V65.849H93.2812V61Z" fill="white"/>
</mask>
<g mask="url(#mask0_88_1344)">
<mask id="mask1_88_1344" style="mask-type:luminance" maskUnits="userSpaceOnUse" x="93" y="61" width="27" height="5">
<path d="M119.672 63.4219C119.672 64.7604 118.589 65.849 117.25 65.849H95.7083C94.3698 65.849 93.2812 64.7604 93.2812 63.4219C93.2812 62.0833 94.3698 61 95.7083 61H117.25C118.589 61 119.672 62.0833 119.672 63.4219Z" fill="white"/>
</mask>
<g mask="url(#mask1_88_1344)">
<mask id="mask2_88_1344" style="mask-type:luminance" maskUnits="userSpaceOnUse" x="92" y="60" width="29" height="7">
<path d="M120.667 60.0364H92.667V66.7031H120.667V60.0364Z" fill="white"/>
</mask>
<g mask="url(#mask2_88_1344)">
<mask id="mask3_88_1344" style="mask-type:luminance" maskUnits="userSpaceOnUse" x="93" y="61" width="27" height="5">
<path d="M93.2812 61H119.677V65.849H93.2812V61Z" fill="white"/>
</mask>
<g mask="url(#mask3_88_1344)">
<mask id="mask4_88_1344" style="mask-type:luminance" maskUnits="userSpaceOnUse" x="93" y="61" width="27" height="5">
<path d="M119.672 63.4219C119.672 64.7604 118.589 65.849 117.25 65.849H95.7083C94.3698 65.849 93.2812 64.7604 93.2812 63.4219C93.2812 62.0833 94.3698 61 95.7083 61H117.25C118.589 61 119.672 62.0833 119.672 63.4219Z" fill="white"/>
</mask>
<g mask="url(#mask4_88_1344)">
<path d="M93.2812 61H119.677V65.849H93.2812V61Z" fill="#004AAD"/>
</g>
</g>
</g>
</g>
</g>
<mask id="mask5_88_1344" style="mask-type:luminance" maskUnits="userSpaceOnUse" x="110" y="68" width="21" height="6">
<path d="M110.75 68.7135H130.177V73.5625H110.75V68.7135Z" fill="white"/>
</mask>
<g mask="url(#mask5_88_1344)">
<mask id="mask6_88_1344" style="mask-type:luminance" maskUnits="userSpaceOnUse" x="110" y="68" width="21" height="6">
<path d="M130.167 71.1406C130.167 72.4791 129.083 73.5625 127.745 73.5625H113.172C111.833 73.5625 110.75 72.4791 110.75 71.1406C110.75 69.802 111.833 68.7135 113.172 68.7135H127.745C129.083 68.7135 130.167 69.802 130.167 71.1406Z" fill="white"/>
</mask>
<g mask="url(#mask6_88_1344)">
<mask id="mask7_88_1344" style="mask-type:luminance" maskUnits="userSpaceOnUse" x="110" y="68" width="22" height="7">
<path d="M131.333 68.0364H110V74.7031H131.333V68.0364Z" fill="white"/>
</mask>
<g mask="url(#mask7_88_1344)">
<mask id="mask8_88_1344" style="mask-type:luminance" maskUnits="userSpaceOnUse" x="110" y="68" width="21" height="6">
<path d="M110.75 68.7135H130.177V73.5625H110.75V68.7135Z" fill="white"/>
</mask>
<g mask="url(#mask8_88_1344)">
<mask id="mask9_88_1344" style="mask-type:luminance" maskUnits="userSpaceOnUse" x="110" y="68" width="21" height="6">
<path d="M130.167 71.1406C130.167 72.4791 129.083 73.5625 127.745 73.5625H113.172C111.833 73.5625 110.75 72.4791 110.75 71.1406C110.75 69.802 111.833 68.7135 113.172 68.7135H127.745C129.083 68.7135 130.167 69.802 130.167 71.1406Z" fill="white"/>
</mask>
<g mask="url(#mask9_88_1344)">
<path d="M110.75 68.7135H130.156V73.5625H110.75V68.7135Z" fill="#004AAD"/>
</g>
</g>
</g>
</g>
</g>
<mask id="mask10_88_1344" style="mask-type:luminance" maskUnits="userSpaceOnUse" x="118" y="76" width="20" height="6">
<path d="M118.031 76.5729H137.458V81.4218H118.031V76.5729Z" fill="white"/>
</mask>
<g mask="url(#mask10_88_1344)">
<mask id="mask11_88_1344" style="mask-type:luminance" maskUnits="userSpaceOnUse" x="118" y="76" width="20" height="6">
<path d="M137.448 79C137.448 80.3385 136.365 81.4218 135.026 81.4218H120.458C119.12 81.4218 118.031 80.3385 118.031 79C118.031 77.6562 119.12 76.5729 120.458 76.5729H135.026C136.365 76.5729 137.448 77.6562 137.448 79Z" fill="white"/>
</mask>
<g mask="url(#mask11_88_1344)">
<mask id="mask12_88_1344" style="mask-type:luminance" maskUnits="userSpaceOnUse" x="118" y="76" width="20" height="7">
<path d="M138 76.0364H118V82.7031H138V76.0364Z" fill="white"/>
</mask>
<g mask="url(#mask12_88_1344)">
<mask id="mask13_88_1344" style="mask-type:luminance" maskUnits="userSpaceOnUse" x="118" y="76" width="20" height="6">
<path d="M118.031 76.5729H137.458V81.4218H118.031V76.5729Z" fill="white"/>
</mask>
<g mask="url(#mask13_88_1344)">
<mask id="mask14_88_1344" style="mask-type:luminance" maskUnits="userSpaceOnUse" x="118" y="76" width="20" height="6">
<path d="M137.448 79C137.448 80.3385 136.365 81.4218 135.026 81.4218H120.458C119.12 81.4218 118.031 80.3385 118.031 79C118.031 77.6562 119.12 76.5729 120.458 76.5729H135.026C136.365 76.5729 137.448 77.6562 137.448 79Z" fill="white"/>
</mask>
<g mask="url(#mask14_88_1344)">
<path d="M118.031 76.5729H137.443V81.4218H118.031V76.5729Z" fill="#004AAD"/>
</g>
</g>
</g>
</g>
</g>
<mask id="mask15_88_1344" style="mask-type:luminance" maskUnits="userSpaceOnUse" x="122" y="84" width="16" height="6">
<path d="M122.683 84.4323H137.453V89.2812H122.683V84.4323Z" fill="white"/>
</mask>
<g mask="url(#mask15_88_1344)">
<mask id="mask16_88_1344" style="mask-type:luminance" maskUnits="userSpaceOnUse" x="122" y="84" width="16" height="6">
<path d="M137.448 86.8541C137.448 88.1927 136.365 89.2812 135.026 89.2812H125.104C123.766 89.2812 122.683 88.1927 122.683 86.8541C122.683 85.5156 123.766 84.4323 125.104 84.4323H135.026C136.365 84.4323 137.448 85.5156 137.448 86.8541Z" fill="white"/>
</mask>
<g mask="url(#mask16_88_1344)">
<mask id="mask17_88_1344" style="mask-type:luminance" maskUnits="userSpaceOnUse" x="122" y="84" width="16" height="6">
<path d="M138 84.0364H122V89.3698H138V84.0364Z" fill="white"/>
</mask>
<g mask="url(#mask17_88_1344)">
<mask id="mask18_88_1344" style="mask-type:luminance" maskUnits="userSpaceOnUse" x="122" y="84" width="16" height="6">
<path d="M122.683 84.4323H137.453V89.2812H122.683V84.4323Z" fill="white"/>
</mask>
<g mask="url(#mask18_88_1344)">
<mask id="mask19_88_1344" style="mask-type:luminance" maskUnits="userSpaceOnUse" x="122" y="84" width="16" height="6">
<path d="M137.448 86.8541C137.448 88.1927 136.365 89.2812 135.026 89.2812H125.104C123.766 89.2812 122.683 88.1927 122.683 86.8541C122.683 85.5156 123.766 84.4323 125.104 84.4323H135.026C136.365 84.4323 137.448 85.5156 137.448 86.8541Z" fill="white"/>
</mask>
<g mask="url(#mask19_88_1344)">
<path d="M122.683 84.4323H137.453V89.2812H122.683V84.4323Z" fill="#004AAD"/>
</g>
</g>
</g>
</g>
</g>
<mask id="mask20_88_1344" style="mask-type:luminance" maskUnits="userSpaceOnUse" x="122" y="92" width="21" height="6">
<path d="M122.683 92.2916H142.11V97.1354H122.683V92.2916Z" fill="white"/>
</mask>
<g mask="url(#mask20_88_1344)">
<mask id="mask21_88_1344" style="mask-type:luminance" maskUnits="userSpaceOnUse" x="122" y="92" width="21" height="6">
<path d="M142.099 94.7135C142.099 96.052 141.016 97.1354 139.677 97.1354H125.104C123.766 97.1354 122.683 96.052 122.683 94.7135C122.683 93.375 123.766 92.2916 125.104 92.2916H139.677C141.016 92.2916 142.099 93.375 142.099 94.7135Z" fill="white"/>
</mask>
<g mask="url(#mask21_88_1344)">
<mask id="mask22_88_1344" style="mask-type:luminance" maskUnits="userSpaceOnUse" x="122" y="92" width="22" height="6">
<path d="M143.333 92.0364H122V97.3698H143.333V92.0364Z" fill="white"/>
</mask>
<g mask="url(#mask22_88_1344)">
<mask id="mask23_88_1344" style="mask-type:luminance" maskUnits="userSpaceOnUse" x="122" y="92" width="21" height="6">
<path d="M122.683 92.2916H142.11V97.1354H122.683V92.2916Z" fill="white"/>
</mask>
<g mask="url(#mask23_88_1344)">
<mask id="mask24_88_1344" style="mask-type:luminance" maskUnits="userSpaceOnUse" x="122" y="92" width="21" height="6">
<path d="M142.099 94.7135C142.099 96.052 141.016 97.1354 139.677 97.1354H125.104C123.766 97.1354 122.683 96.052 122.683 94.7135C122.683 93.375 123.766 92.2916 125.104 92.2916H139.677C141.016 92.2916 142.099 93.375 142.099 94.7135Z" fill="white"/>
</mask>
<g mask="url(#mask24_88_1344)">
<path d="M122.683 92.2916H142.089V97.1354H122.683V92.2916Z" fill="#004AAD"/>
</g>
</g>
</g>
</g>
</g>
<mask id="mask25_88_1344" style="mask-type:luminance" maskUnits="userSpaceOnUse" x="116" y="100" width="20" height="5">
<path d="M116.229 100.146H135.657V104.995H116.229V100.146Z" fill="white"/>
</mask>
<g mask="url(#mask25_88_1344)">
<mask id="mask26_88_1344" style="mask-type:luminance" maskUnits="userSpaceOnUse" x="116" y="100" width="20" height="5">
<path d="M135.646 102.573C135.646 103.911 134.563 104.995 133.224 104.995H118.651C117.313 104.995 116.229 103.911 116.229 102.573C116.229 101.234 117.313 100.146 118.651 100.146H133.224C134.563 100.146 135.646 101.234 135.646 102.573Z" fill="white"/>
</mask>
<g mask="url(#mask26_88_1344)">
<mask id="mask27_88_1344" style="mask-type:luminance" maskUnits="userSpaceOnUse" x="115" y="100" width="22" height="6">
<path d="M136.667 100.036H115.334V105.37H136.667V100.036Z" fill="white"/>
</mask>
<g mask="url(#mask27_88_1344)">
<mask id="mask28_88_1344" style="mask-type:luminance" maskUnits="userSpaceOnUse" x="116" y="100" width="20" height="5">
<path d="M116.229 100.146H135.657V104.995H116.229V100.146Z" fill="white"/>
</mask>
<g mask="url(#mask28_88_1344)">
<mask id="mask29_88_1344" style="mask-type:luminance" maskUnits="userSpaceOnUse" x="116" y="100" width="20" height="5">
<path d="M135.646 102.573C135.646 103.911 134.563 104.995 133.224 104.995H118.651C117.313 104.995 116.229 103.911 116.229 102.573C116.229 101.234 117.313 100.146 118.651 100.146H133.224C134.563 100.146 135.646 101.234 135.646 102.573Z" fill="white"/>
</mask>
<g mask="url(#mask29_88_1344)">
<path d="M116.229 100.146H135.641V104.995H116.229V100.146Z" fill="#FF66C4"/>
</g>
</g>
</g>
</g>
</g>
<mask id="mask30_88_1344" style="mask-type:luminance" maskUnits="userSpaceOnUse" x="113" y="108" width="13" height="5">
<path d="M113.516 108.005H125.844V112.854H113.516V108.005Z" fill="white"/>
</mask>
<g mask="url(#mask30_88_1344)">
<mask id="mask31_88_1344" style="mask-type:luminance" maskUnits="userSpaceOnUse" x="113" y="108" width="13" height="5">
<path d="M125.828 110.427C125.828 111.766 124.745 112.854 123.406 112.854H115.938C114.599 112.854 113.516 111.766 113.516 110.427C113.516 109.089 114.599 108.005 115.938 108.005H123.406C124.745 108.005 125.828 109.089 125.828 110.427Z" fill="white"/>
</mask>
<g mask="url(#mask31_88_1344)">
<mask id="mask32_88_1344" style="mask-type:luminance" maskUnits="userSpaceOnUse" x="112" y="106" width="14" height="8">
<path d="M126 106.703H112.667V113.37H126V106.703Z" fill="white"/>
</mask>
<g mask="url(#mask32_88_1344)">
<mask id="mask33_88_1344" style="mask-type:luminance" maskUnits="userSpaceOnUse" x="113" y="108" width="13" height="5">
<path d="M113.516 108.005H125.839V112.854H113.516V108.005Z" fill="white"/>
</mask>
<g mask="url(#mask33_88_1344)">
<mask id="mask34_88_1344" style="mask-type:luminance" maskUnits="userSpaceOnUse" x="113" y="108" width="13" height="5">
<path d="M125.828 110.427C125.828 111.766 124.745 112.854 123.406 112.854H115.937C114.599 112.854 113.516 111.766 113.516 110.427C113.516 109.089 114.599 108.005 115.937 108.005H123.406C124.745 108.005 125.828 109.089 125.828 110.427Z" fill="white"/>
</mask>
<g mask="url(#mask34_88_1344)">
<path d="M113.516 108.005H125.823V112.854H113.516V108.005Z" fill="#004AAD"/>
</g>
</g>
</g>
</g>
</g>
<mask id="mask35_88_1344" style="mask-type:luminance" maskUnits="userSpaceOnUse" x="92" y="115" width="27" height="6">
<path d="M92.375 115.474H118.052V120.323H92.375V115.474Z" fill="white"/>
</mask>
<g mask="url(#mask35_88_1344)">
<mask id="mask36_88_1344" style="mask-type:luminance" maskUnits="userSpaceOnUse" x="92" y="115" width="27" height="6">
<path d="M118.031 117.901C118.031 119.24 116.948 120.323 115.609 120.323H94.7969C93.4583 120.323 92.375 119.24 92.375 117.901C92.375 116.562 93.4583 115.474 94.7969 115.474H115.609C116.948 115.474 118.031 116.562 118.031 117.901Z" fill="white"/>
</mask>
<g mask="url(#mask36_88_1344)">
<mask id="mask37_88_1344" style="mask-type:luminance" maskUnits="userSpaceOnUse" x="91" y="114" width="29" height="8">
<path d="M119.333 114.703H91.333V121.37H119.333V114.703Z" fill="white"/>
</mask>
<g mask="url(#mask37_88_1344)">
<mask id="mask38_88_1344" style="mask-type:luminance" maskUnits="userSpaceOnUse" x="92" y="115" width="27" height="6">
<path d="M92.375 115.474H118.052V120.323H92.375V115.474Z" fill="white"/>
</mask>
<g mask="url(#mask38_88_1344)">
<mask id="mask39_88_1344" style="mask-type:luminance" maskUnits="userSpaceOnUse" x="92" y="115" width="27" height="6">
<path d="M118.031 117.901C118.031 119.24 116.948 120.323 115.609 120.323H94.7969C93.4583 120.323 92.375 119.24 92.375 117.901C92.375 116.562 93.4583 115.474 94.7969 115.474H115.609C116.948 115.474 118.031 116.562 118.031 117.901Z" fill="white"/>
</mask>
<g mask="url(#mask39_88_1344)">
<path d="M92.375 115.474H118.031V120.323H92.375V115.474Z" fill="#004AAD"/>
</g>
</g>
</g>
</g>
</g>
<mask id="mask40_88_1344" style="mask-type:luminance" maskUnits="userSpaceOnUse" x="79" y="108" width="20" height="5">
<path d="M79.1143 108.005H98.5413V112.854H79.1143V108.005Z" fill="white"/>
</mask>
<g mask="url(#mask40_88_1344)">
<mask id="mask41_88_1344" style="mask-type:luminance" maskUnits="userSpaceOnUse" x="79" y="108" width="20" height="5">
<path d="M98.5309 110.427C98.5309 111.766 97.4476 112.854 96.109 112.854H81.5361C80.1976 112.854 79.1143 111.766 79.1143 110.427C79.1143 109.089 80.1976 108.005 81.5361 108.005H96.109C97.4476 108.005 98.5309 109.089 98.5309 110.427Z" fill="white"/>
</mask>
<g mask="url(#mask41_88_1344)">
<mask id="mask42_88_1344" style="mask-type:luminance" maskUnits="userSpaceOnUse" x="78" y="106" width="22" height="8">
<path d="M99.3333 106.703H78V113.37H99.3333V106.703Z" fill="white"/>
</mask>
<g mask="url(#mask42_88_1344)">
<mask id="mask43_88_1344" style="mask-type:luminance" maskUnits="userSpaceOnUse" x="79" y="108" width="20" height="5">
<path d="M79.1143 108.005H98.5413V112.854H79.1143V108.005Z" fill="white"/>
</mask>
<g mask="url(#mask43_88_1344)">
<mask id="mask44_88_1344" style="mask-type:luminance" maskUnits="userSpaceOnUse" x="79" y="108" width="20" height="5">
<path d="M98.5309 110.427C98.5309 111.766 97.4476 112.854 96.109 112.854H81.5361C80.1976 112.854 79.1143 111.766 79.1143 110.427C79.1143 109.089 80.1976 108.005 81.5361 108.005H96.109C97.4476 108.005 98.5309 109.089 98.5309 110.427Z" fill="white"/>
</mask>
<g mask="url(#mask44_88_1344)">
<path d="M79.1143 108.005H98.5205V112.854H79.1143V108.005Z" fill="#004AAD"/>
</g>
</g>
</g>
</g>
</g>
<mask id="mask45_88_1344" style="mask-type:luminance" maskUnits="userSpaceOnUse" x="74" y="100" width="16" height="5">
<path d="M74.4531 100.146H89.224V104.995H74.4531V100.146Z" fill="white"/>
</mask>
<g mask="url(#mask45_88_1344)">
<mask id="mask46_88_1344" style="mask-type:luminance" maskUnits="userSpaceOnUse" x="74" y="100" width="16" height="5">
<path d="M89.224 102.573C89.224 103.911 88.1354 104.995 86.7969 104.995H76.8802C75.5365 104.995 74.4531 103.911 74.4531 102.573C74.4531 101.234 75.5365 100.146 76.8802 100.146H86.7969C88.1354 100.146 89.224 101.234 89.224 102.573Z" fill="white"/>
</mask>
<g mask="url(#mask46_88_1344)">
<mask id="mask47_88_1344" style="mask-type:luminance" maskUnits="userSpaceOnUse" x="74" y="100" width="16" height="6">
<path d="M90 100.036H74V105.37H90V100.036Z" fill="white"/>
</mask>
<g mask="url(#mask47_88_1344)">
<mask id="mask48_88_1344" style="mask-type:luminance" maskUnits="userSpaceOnUse" x="74" y="100" width="16" height="5">
<path d="M74.4531 100.146H89.224V104.995H74.4531V100.146Z" fill="white"/>
</mask>
<g mask="url(#mask48_88_1344)">
<mask id="mask49_88_1344" style="mask-type:luminance" maskUnits="userSpaceOnUse" x="74" y="100" width="16" height="5">
<path d="M89.224 102.573C89.224 103.911 88.1354 104.995 86.7969 104.995H76.8802C75.5365 104.995 74.4531 103.911 74.4531 102.573C74.4531 101.234 75.5365 100.146 76.8802 100.146H86.7969C88.1354 100.146 89.224 101.234 89.224 102.573Z" fill="white"/>
</mask>
<g mask="url(#mask49_88_1344)">
<path d="M74.4531 100.146H89.224V104.995H74.4531V100.146Z" fill="#004AAD"/>
</g>
</g>
</g>
</g>
</g>
<mask id="mask50_88_1344" style="mask-type:luminance" maskUnits="userSpaceOnUse" x="66" y="84" width="20" height="6">
<path d="M66 84.4323H85.4271V89.2812H66V84.4323Z" fill="white"/>
</mask>
<g mask="url(#mask50_88_1344)">
<mask id="mask51_88_1344" style="mask-type:luminance" maskUnits="userSpaceOnUse" x="66" y="84" width="20" height="6">
<path d="M85.4167 86.8541C85.4167 88.1927 84.3333 89.2812 82.9948 89.2812H68.4219C67.0833 89.2812 66 88.1927 66 86.8541C66 85.5156 67.0833 84.4323 68.4219 84.4323H82.9948C84.3333 84.4323 85.4167 85.5156 85.4167 86.8541Z" fill="white"/>
</mask>
<g mask="url(#mask51_88_1344)">
<mask id="mask52_88_1344" style="mask-type:luminance" maskUnits="userSpaceOnUse" x="66" y="84" width="20" height="6">
<path d="M86 84.0364H66V89.3698H86V84.0364Z" fill="white"/>
</mask>
<g mask="url(#mask52_88_1344)">
<mask id="mask53_88_1344" style="mask-type:luminance" maskUnits="userSpaceOnUse" x="66" y="84" width="20" height="6">
<path d="M66 84.4323H85.4271V89.2812H66V84.4323Z" fill="white"/>
</mask>
<g mask="url(#mask53_88_1344)">
<mask id="mask54_88_1344" style="mask-type:luminance" maskUnits="userSpaceOnUse" x="66" y="84" width="20" height="6">
<path d="M85.4167 86.8541C85.4167 88.1927 84.3333 89.2812 82.9948 89.2812H68.4219C67.0833 89.2812 66 88.1927 66 86.8541C66 85.5156 67.0833 84.4323 68.4219 84.4323H82.9948C84.3333 84.4323 85.4167 85.5156 85.4167 86.8541Z" fill="white"/>
</mask>
<g mask="url(#mask54_88_1344)">
<path d="M66 84.4323H85.4115V89.2812H66V84.4323Z" fill="#FF66C4"/>
</g>
</g>
</g>
</g>
</g>
<mask id="mask55_88_1344" style="mask-type:luminance" maskUnits="userSpaceOnUse" x="66" y="92" width="13" height="6">
<path d="M66 92.2916H78.3281V97.1354H66V92.2916Z" fill="white"/>
</mask>
<g mask="url(#mask55_88_1344)">
<mask id="mask56_88_1344" style="mask-type:luminance" maskUnits="userSpaceOnUse" x="66" y="92" width="13" height="6">
<path d="M78.3177 94.7135C78.3177 96.052 77.2292 97.1354 75.8906 97.1354H68.4219C67.0833 97.1354 66 96.052 66 94.7135C66 93.375 67.0833 92.2916 68.4219 92.2916H75.8906C77.2292 92.2916 78.3177 93.375 78.3177 94.7135Z" fill="white"/>
</mask>
<g mask="url(#mask56_88_1344)">
<mask id="mask57_88_1344" style="mask-type:luminance" maskUnits="userSpaceOnUse" x="66" y="92" width="14" height="6">
<path d="M79.3333 92.0364H66V97.3698H79.3333V92.0364Z" fill="white"/>
</mask>
<g mask="url(#mask57_88_1344)">
<mask id="mask58_88_1344" style="mask-type:luminance" maskUnits="userSpaceOnUse" x="66" y="92" width="13" height="6">
<path d="M66 92.2916H78.3281V97.1354H66V92.2916Z" fill="white"/>
</mask>
<g mask="url(#mask58_88_1344)">
<mask id="mask59_88_1344" style="mask-type:luminance" maskUnits="userSpaceOnUse" x="66" y="92" width="13" height="6">
<path d="M78.3177 94.7135C78.3177 96.052 77.2292 97.1354 75.8906 97.1354H68.4219C67.0833 97.1354 66 96.052 66 94.7135C66 93.375 67.0833 92.2916 68.4219 92.2916H75.8906C77.2292 92.2916 78.3177 93.375 78.3177 94.7135Z" fill="white"/>
</mask>
<g mask="url(#mask59_88_1344)">
<path d="M66 92.2916H78.3073V97.1354H66V92.2916Z" fill="#004AAD"/>
</g>
</g>
</g>
</g>
</g>
<mask id="mask60_88_1344" style="mask-type:luminance" maskUnits="userSpaceOnUse" x="79" y="68" width="15" height="6">
<path d="M79.1143 68.7135H93.8851V73.5625H79.1143V68.7135Z" fill="white"/>
</mask>
<g mask="url(#mask60_88_1344)">
<mask id="mask61_88_1344" style="mask-type:luminance" maskUnits="userSpaceOnUse" x="79" y="68" width="15" height="6">
<path d="M93.8799 71.1406C93.8799 72.4791 92.7965 73.5625 91.458 73.5625H81.5361C80.1976 73.5625 79.1143 72.4791 79.1143 71.1406C79.1143 69.802 80.1976 68.7135 81.5361 68.7135H91.458C92.7965 68.7135 93.8799 69.802 93.8799 71.1406Z" fill="white"/>
</mask>
<g mask="url(#mask61_88_1344)">
<mask id="mask62_88_1344" style="mask-type:luminance" maskUnits="userSpaceOnUse" x="78" y="68" width="16" height="7">
<path d="M94 68.0364H78V74.7031H94V68.0364Z" fill="white"/>
</mask>
<g mask="url(#mask62_88_1344)">
<mask id="mask63_88_1344" style="mask-type:luminance" maskUnits="userSpaceOnUse" x="79" y="68" width="15" height="6">
<path d="M79.1143 68.7135H93.8851V73.5625H79.1143V68.7135Z" fill="white"/>
</mask>
<g mask="url(#mask63_88_1344)">
<mask id="mask64_88_1344" style="mask-type:luminance" maskUnits="userSpaceOnUse" x="79" y="68" width="15" height="6">
<path d="M93.8799 71.1406C93.8799 72.4791 92.7965 73.5625 91.458 73.5625H81.5361C80.1976 73.5625 79.1143 72.4791 79.1143 71.1406C79.1143 69.802 80.1976 68.7135 81.5361 68.7135H91.458C92.7965 68.7135 93.8799 69.802 93.8799 71.1406Z" fill="white"/>
</mask>
<g mask="url(#mask64_88_1344)">
<path d="M79.1143 68.7135H93.8851V73.5625H79.1143V68.7135Z" fill="#004AAD"/>
</g>
</g>
</g>
</g>
</g>
<mask id="mask65_88_1344" style="mask-type:luminance" maskUnits="userSpaceOnUse" x="74" y="76" width="16" height="6">
<path d="M74.4531 76.5729H89.224V81.4218H74.4531V76.5729Z" fill="white"/>
</mask>
<g mask="url(#mask65_88_1344)">
<mask id="mask66_88_1344" style="mask-type:luminance" maskUnits="userSpaceOnUse" x="74" y="76" width="16" height="6">
<path d="M89.224 79C89.224 80.3385 88.1354 81.4218 86.7969 81.4218H76.8802C75.5365 81.4218 74.4531 80.3385 74.4531 79C74.4531 77.6562 75.5365 76.5729 76.8802 76.5729H86.7969C88.1354 76.5729 89.224 77.6562 89.224 79Z" fill="white"/>
</mask>
<g mask="url(#mask66_88_1344)">
<mask id="mask67_88_1344" style="mask-type:luminance" maskUnits="userSpaceOnUse" x="74" y="76" width="16" height="7">
<path d="M90 76.0364H74V82.7031H90V76.0364Z" fill="white"/>
</mask>
<g mask="url(#mask67_88_1344)">
<mask id="mask68_88_1344" style="mask-type:luminance" maskUnits="userSpaceOnUse" x="74" y="76" width="16" height="6">
<path d="M74.4531 76.5729H89.224V81.4218H74.4531V76.5729Z" fill="white"/>
</mask>
<g mask="url(#mask68_88_1344)">
<mask id="mask69_88_1344" style="mask-type:luminance" maskUnits="userSpaceOnUse" x="74" y="76" width="16" height="6">
<path d="M89.224 79C89.224 80.3385 88.1354 81.4218 86.7969 81.4218H76.8802C75.5365 81.4218 74.4531 80.3385 74.4531 79C74.4531 77.6562 75.5365 76.5729 76.8802 76.5729H86.7969C88.1354 76.5729 89.224 77.6562 89.224 79Z" fill="white"/>
</mask>
<g mask="url(#mask69_88_1344)">
<path d="M74.4531 76.5729H89.224V81.4218H74.4531V76.5729Z" fill="#004AAD"/>
</g>
</g>
</g>
</g>
</g>
<mask id="mask70_88_1344" style="mask-type:luminance" maskUnits="userSpaceOnUse" x="174" y="34" width="312" height="103">
<path d="M486 34H174V136.667H486V34Z" fill="white"/>
</mask>
<g mask="url(#mask70_88_1344)">
<path d="M201.481 115.657C198.064 115.657 194.887 115.064 191.96 113.886C189.043 112.694 186.522 111.064 184.397 108.991C182.283 106.923 180.616 104.501 179.397 101.72C178.189 98.9282 177.585 95.9386 177.585 92.7407V92.574C177.585 89.3657 178.189 86.3761 179.397 83.5948C180.616 80.8032 182.299 78.3657 184.439 76.2823C186.59 74.1886 189.127 72.5323 192.043 71.324C194.97 70.1052 198.174 69.4907 201.647 69.4907C205.075 69.4907 208.252 70.0896 211.168 71.2823C214.085 72.4646 216.606 74.0896 218.731 76.1573C220.856 78.2146 222.522 80.6365 223.731 83.4282C224.95 86.2094 225.564 89.199 225.564 92.4073V92.574C225.564 95.7719 224.95 98.7615 223.731 101.553C222.522 104.334 220.84 106.772 218.689 108.866C216.533 110.965 214.002 112.626 211.085 113.845C208.168 115.053 204.965 115.657 201.481 115.657ZM201.647 104.803C203.465 104.803 205.075 104.491 206.481 103.866C207.897 103.23 209.095 102.36 210.085 101.261C211.085 100.152 211.84 98.8657 212.356 97.4073C212.882 95.949 213.147 94.3969 213.147 92.7407V92.574C213.147 90.923 212.866 89.3657 212.314 87.9073C211.772 86.4386 210.97 85.1365 209.918 84.0115C208.877 82.8761 207.632 81.9802 206.189 81.324C204.757 80.6573 203.189 80.324 201.481 80.324C199.658 80.324 198.049 80.6469 196.647 81.2823C195.241 81.9073 194.043 82.7771 193.043 83.8865C192.054 84.9855 191.299 86.2719 190.772 87.7407C190.241 89.199 189.981 90.7563 189.981 92.4073V92.574C189.981 94.2302 190.257 95.7823 190.814 97.2407C191.366 98.699 192.168 100.001 193.21 101.136C194.262 102.261 195.491 103.157 196.897 103.824C198.299 104.48 199.882 104.803 201.647 104.803Z" fill="#004AAD"/>
<path d="M242.924 70.324H255.507V76.5948C256.215 75.6677 256.992 74.7771 257.84 73.9282C258.7 73.0688 259.653 72.3032 260.695 71.6365C261.747 70.9698 262.924 70.449 264.215 70.074C265.518 69.6886 266.971 69.4907 268.57 69.4907C271.486 69.4907 274.007 70.1052 276.132 71.324C278.257 72.5323 279.903 74.2615 281.07 76.5115C282.997 74.2094 285.143 72.4646 287.507 71.2823C289.882 70.0896 292.59 69.4907 295.632 69.4907C300.309 69.4907 303.971 70.8761 306.611 73.6365C309.262 76.3865 310.59 80.4386 310.59 85.7823V114.657H298.028V89.9282C298.028 86.9438 297.387 84.6938 296.111 83.1782C294.846 81.6677 293.028 80.9073 290.653 80.9073C288.288 80.9073 286.429 81.6677 285.07 83.1782C283.721 84.6938 283.049 86.9438 283.049 89.9282V114.657H270.465V89.9282C270.465 86.9438 269.83 84.6938 268.57 83.1782C267.304 81.6677 265.486 80.9073 263.111 80.9073C260.736 80.9073 258.872 81.6677 257.528 83.1782C256.179 84.6938 255.507 86.9438 255.507 89.9282V114.657H242.924V70.324Z" fill="#004AAD"/>
<path d="M330.021 54.2615H343.251V65.4281H330.021V54.2615ZM330.355 70.324H342.917V114.657H330.355V70.324Z" fill="#004AAD"/>
<path d="M381.649 83.3031L390.003 70.324H403.149L388.17 91.9906L403.816 114.657H390.316L381.399 100.845L372.462 114.657H359.295L374.857 92.1573L359.878 70.324H373.357L381.649 83.3031Z" fill="#004AAD"/>
<path d="M419.851 54.2615H433.08V65.4281H419.851V54.2615ZM420.184 70.324H432.746V114.657H420.184V70.324Z" fill="#004AAD"/>
<path d="M452.853 70.324H465.436V79.2407C466.696 76.2146 468.436 73.7928 470.644 71.9698C472.853 70.1521 475.832 69.324 479.582 69.4907V82.6365H478.915C474.717 82.6365 471.42 83.9073 469.019 86.449C466.629 88.9907 465.436 92.9386 465.436 98.2823V114.657H452.853V70.324Z" fill="#004AAD"/>
</g>
</svg>
